<svg xmlns="http://www.w3.org/2000/svg" width="94" height="202" viewBox="0 0 94 202">
    <defs>
        <clipPath id="clip-path">
            <path fill="none" d="M0 0H94V202H0z"/>
        </clipPath>
        <style>
            .cls-3{fill:#3b7dba}
        </style>
    </defs>
    <g id="Repeat_Grid_3" clip-path="url(#clip-path)">
        <g transform="translate(-812 -110)">
            <rect id="Rectangle_458" width="3" height="3" class="cls-3" rx="1" transform="translate(812 110)"/>
        </g>
        <g transform="translate(-802 -110)">
            <rect id="Rectangle_458-2" width="3" height="3" class="cls-3" rx="1" transform="translate(812 110)"/>
        </g>
        <g transform="translate(-792 -110)">
            <rect id="Rectangle_458-3" width="3" height="3" class="cls-3" rx="1" transform="translate(812 110)"/>
        </g>
        <g transform="translate(-782 -110)">
            <rect id="Rectangle_458-4" width="3" height="3" class="cls-3" rx="1" transform="translate(812 110)"/>
        </g>
        <g transform="translate(-772 -110)">
            <rect id="Rectangle_458-5" width="3" height="3" class="cls-3" rx="1" transform="translate(812 110)"/>
        </g>
        <g transform="translate(-762 -110)">
            <rect id="Rectangle_458-6" width="3" height="3" class="cls-3" rx="1" transform="translate(812 110)"/>
        </g>
        <g transform="translate(-752 -110)">
            <rect id="Rectangle_458-7" width="3" height="3" class="cls-3" rx="1" transform="translate(812 110)"/>
        </g>
        <g transform="translate(-742 -110)">
            <rect id="Rectangle_458-8" width="3" height="3" class="cls-3" rx="1" transform="translate(812 110)"/>
        </g>
        <g transform="translate(-732 -110)">
            <rect id="Rectangle_458-9" width="3" height="3" class="cls-3" rx="1" transform="translate(812 110)"/>
        </g>
        <g transform="translate(-722 -110)">
            <rect id="Rectangle_458-10" width="3" height="3" class="cls-3" rx="1" transform="translate(812 110)"/>
        </g>
        <g transform="translate(-812 -100)">
            <rect id="Rectangle_458-11" width="3" height="3" class="cls-3" rx="1" transform="translate(812 110)"/>
        </g>
        <g transform="translate(-802 -100)">
            <rect id="Rectangle_458-12" width="3" height="3" class="cls-3" rx="1" transform="translate(812 110)"/>
        </g>
        <g transform="translate(-792 -100)">
            <rect id="Rectangle_458-13" width="3" height="3" class="cls-3" rx="1" transform="translate(812 110)"/>
        </g>
        <g transform="translate(-782 -100)">
            <rect id="Rectangle_458-14" width="3" height="3" class="cls-3" rx="1" transform="translate(812 110)"/>
        </g>
        <g transform="translate(-772 -100)">
            <rect id="Rectangle_458-15" width="3" height="3" class="cls-3" rx="1" transform="translate(812 110)"/>
        </g>
        <g transform="translate(-762 -100)">
            <rect id="Rectangle_458-16" width="3" height="3" class="cls-3" rx="1" transform="translate(812 110)"/>
        </g>
        <g transform="translate(-752 -100)">
            <rect id="Rectangle_458-17" width="3" height="3" class="cls-3" rx="1" transform="translate(812 110)"/>
        </g>
        <g transform="translate(-742 -100)">
            <rect id="Rectangle_458-18" width="3" height="3" class="cls-3" rx="1" transform="translate(812 110)"/>
        </g>
        <g transform="translate(-732 -100)">
            <rect id="Rectangle_458-19" width="3" height="3" class="cls-3" rx="1" transform="translate(812 110)"/>
        </g>
        <g transform="translate(-722 -100)">
            <rect id="Rectangle_458-20" width="3" height="3" class="cls-3" rx="1" transform="translate(812 110)"/>
        </g>
        <g transform="translate(-812 -90)">
            <rect id="Rectangle_458-21" width="3" height="3" class="cls-3" rx="1" transform="translate(812 110)"/>
        </g>
        <g transform="translate(-802 -90)">
            <rect id="Rectangle_458-22" width="3" height="3" class="cls-3" rx="1" transform="translate(812 110)"/>
        </g>
        <g transform="translate(-792 -90)">
            <rect id="Rectangle_458-23" width="3" height="3" class="cls-3" rx="1" transform="translate(812 110)"/>
        </g>
        <g transform="translate(-782 -90)">
            <rect id="Rectangle_458-24" width="3" height="3" class="cls-3" rx="1" transform="translate(812 110)"/>
        </g>
        <g transform="translate(-772 -90)">
            <rect id="Rectangle_458-25" width="3" height="3" class="cls-3" rx="1" transform="translate(812 110)"/>
        </g>
        <g transform="translate(-762 -90)">
            <rect id="Rectangle_458-26" width="3" height="3" class="cls-3" rx="1" transform="translate(812 110)"/>
        </g>
        <g transform="translate(-752 -90)">
            <rect id="Rectangle_458-27" width="3" height="3" class="cls-3" rx="1" transform="translate(812 110)"/>
        </g>
        <g transform="translate(-742 -90)">
            <rect id="Rectangle_458-28" width="3" height="3" class="cls-3" rx="1" transform="translate(812 110)"/>
        </g>
        <g transform="translate(-732 -90)">
            <rect id="Rectangle_458-29" width="3" height="3" class="cls-3" rx="1" transform="translate(812 110)"/>
        </g>
        <g transform="translate(-722 -90)">
            <rect id="Rectangle_458-30" width="3" height="3" class="cls-3" rx="1" transform="translate(812 110)"/>
        </g>
        <g transform="translate(-812 -80)">
            <rect id="Rectangle_458-31" width="3" height="3" class="cls-3" rx="1" transform="translate(812 110)"/>
        </g>
        <g transform="translate(-802 -80)">
            <rect id="Rectangle_458-32" width="3" height="3" class="cls-3" rx="1" transform="translate(812 110)"/>
        </g>
        <g transform="translate(-792 -80)">
            <rect id="Rectangle_458-33" width="3" height="3" class="cls-3" rx="1" transform="translate(812 110)"/>
        </g>
        <g transform="translate(-782 -80)">
            <rect id="Rectangle_458-34" width="3" height="3" class="cls-3" rx="1" transform="translate(812 110)"/>
        </g>
        <g transform="translate(-772 -80)">
            <rect id="Rectangle_458-35" width="3" height="3" class="cls-3" rx="1" transform="translate(812 110)"/>
        </g>
        <g transform="translate(-762 -80)">
            <rect id="Rectangle_458-36" width="3" height="3" class="cls-3" rx="1" transform="translate(812 110)"/>
        </g>
        <g transform="translate(-752 -80)">
            <rect id="Rectangle_458-37" width="3" height="3" class="cls-3" rx="1" transform="translate(812 110)"/>
        </g>
        <g transform="translate(-742 -80)">
            <rect id="Rectangle_458-38" width="3" height="3" class="cls-3" rx="1" transform="translate(812 110)"/>
        </g>
        <g transform="translate(-732 -80)">
            <rect id="Rectangle_458-39" width="3" height="3" class="cls-3" rx="1" transform="translate(812 110)"/>
        </g>
        <g transform="translate(-722 -80)">
            <rect id="Rectangle_458-40" width="3" height="3" class="cls-3" rx="1" transform="translate(812 110)"/>
        </g>
        <g transform="translate(-812 -70)">
            <rect id="Rectangle_458-41" width="3" height="3" class="cls-3" rx="1" transform="translate(812 110)"/>
        </g>
        <g transform="translate(-802 -70)">
            <rect id="Rectangle_458-42" width="3" height="3" class="cls-3" rx="1" transform="translate(812 110)"/>
        </g>
        <g transform="translate(-792 -70)">
            <rect id="Rectangle_458-43" width="3" height="3" class="cls-3" rx="1" transform="translate(812 110)"/>
        </g>
        <g transform="translate(-782 -70)">
            <rect id="Rectangle_458-44" width="3" height="3" class="cls-3" rx="1" transform="translate(812 110)"/>
        </g>
        <g transform="translate(-772 -70)">
            <rect id="Rectangle_458-45" width="3" height="3" class="cls-3" rx="1" transform="translate(812 110)"/>
        </g>
        <g transform="translate(-762 -70)">
            <rect id="Rectangle_458-46" width="3" height="3" class="cls-3" rx="1" transform="translate(812 110)"/>
        </g>
        <g transform="translate(-752 -70)">
            <rect id="Rectangle_458-47" width="3" height="3" class="cls-3" rx="1" transform="translate(812 110)"/>
        </g>
        <g transform="translate(-742 -70)">
            <rect id="Rectangle_458-48" width="3" height="3" class="cls-3" rx="1" transform="translate(812 110)"/>
        </g>
        <g transform="translate(-732 -70)">
            <rect id="Rectangle_458-49" width="3" height="3" class="cls-3" rx="1" transform="translate(812 110)"/>
        </g>
        <g transform="translate(-722 -70)">
            <rect id="Rectangle_458-50" width="3" height="3" class="cls-3" rx="1" transform="translate(812 110)"/>
        </g>
        <g transform="translate(-812 -60)">
            <rect id="Rectangle_458-51" width="3" height="3" class="cls-3" rx="1" transform="translate(812 110)"/>
        </g>
        <g transform="translate(-802 -60)">
            <rect id="Rectangle_458-52" width="3" height="3" class="cls-3" rx="1" transform="translate(812 110)"/>
        </g>
        <g transform="translate(-792 -60)">
            <rect id="Rectangle_458-53" width="3" height="3" class="cls-3" rx="1" transform="translate(812 110)"/>
        </g>
        <g transform="translate(-782 -60)">
            <rect id="Rectangle_458-54" width="3" height="3" class="cls-3" rx="1" transform="translate(812 110)"/>
        </g>
        <g transform="translate(-772 -60)">
            <rect id="Rectangle_458-55" width="3" height="3" class="cls-3" rx="1" transform="translate(812 110)"/>
        </g>
        <g transform="translate(-762 -60)">
            <rect id="Rectangle_458-56" width="3" height="3" class="cls-3" rx="1" transform="translate(812 110)"/>
        </g>
        <g transform="translate(-752 -60)">
            <rect id="Rectangle_458-57" width="3" height="3" class="cls-3" rx="1" transform="translate(812 110)"/>
        </g>
        <g transform="translate(-742 -60)">
            <rect id="Rectangle_458-58" width="3" height="3" class="cls-3" rx="1" transform="translate(812 110)"/>
        </g>
        <g transform="translate(-732 -60)">
            <rect id="Rectangle_458-59" width="3" height="3" class="cls-3" rx="1" transform="translate(812 110)"/>
        </g>
        <g transform="translate(-722 -60)">
            <rect id="Rectangle_458-60" width="3" height="3" class="cls-3" rx="1" transform="translate(812 110)"/>
        </g>
        <g transform="translate(-812 -50)">
            <rect id="Rectangle_458-61" width="3" height="3" class="cls-3" rx="1" transform="translate(812 110)"/>
        </g>
        <g transform="translate(-802 -50)">
            <rect id="Rectangle_458-62" width="3" height="3" class="cls-3" rx="1" transform="translate(812 110)"/>
        </g>
        <g transform="translate(-792 -50)">
            <rect id="Rectangle_458-63" width="3" height="3" class="cls-3" rx="1" transform="translate(812 110)"/>
        </g>
        <g transform="translate(-782 -50)">
            <rect id="Rectangle_458-64" width="3" height="3" class="cls-3" rx="1" transform="translate(812 110)"/>
        </g>
        <g transform="translate(-772 -50)">
            <rect id="Rectangle_458-65" width="3" height="3" class="cls-3" rx="1" transform="translate(812 110)"/>
        </g>
        <g transform="translate(-762 -50)">
            <rect id="Rectangle_458-66" width="3" height="3" class="cls-3" rx="1" transform="translate(812 110)"/>
        </g>
        <g transform="translate(-752 -50)">
            <rect id="Rectangle_458-67" width="3" height="3" class="cls-3" rx="1" transform="translate(812 110)"/>
        </g>
        <g transform="translate(-742 -50)">
            <rect id="Rectangle_458-68" width="3" height="3" class="cls-3" rx="1" transform="translate(812 110)"/>
        </g>
        <g transform="translate(-732 -50)">
            <rect id="Rectangle_458-69" width="3" height="3" class="cls-3" rx="1" transform="translate(812 110)"/>
        </g>
        <g transform="translate(-722 -50)">
            <rect id="Rectangle_458-70" width="3" height="3" class="cls-3" rx="1" transform="translate(812 110)"/>
        </g>
        <g transform="translate(-812 -40)">
            <rect id="Rectangle_458-71" width="3" height="3" class="cls-3" rx="1" transform="translate(812 110)"/>
        </g>
        <g transform="translate(-802 -40)">
            <rect id="Rectangle_458-72" width="3" height="3" class="cls-3" rx="1" transform="translate(812 110)"/>
        </g>
        <g transform="translate(-792 -40)">
            <rect id="Rectangle_458-73" width="3" height="3" class="cls-3" rx="1" transform="translate(812 110)"/>
        </g>
        <g transform="translate(-782 -40)">
            <rect id="Rectangle_458-74" width="3" height="3" class="cls-3" rx="1" transform="translate(812 110)"/>
        </g>
        <g transform="translate(-772 -40)">
            <rect id="Rectangle_458-75" width="3" height="3" class="cls-3" rx="1" transform="translate(812 110)"/>
        </g>
        <g transform="translate(-762 -40)">
            <rect id="Rectangle_458-76" width="3" height="3" class="cls-3" rx="1" transform="translate(812 110)"/>
        </g>
        <g transform="translate(-752 -40)">
            <rect id="Rectangle_458-77" width="3" height="3" class="cls-3" rx="1" transform="translate(812 110)"/>
        </g>
        <g transform="translate(-742 -40)">
            <rect id="Rectangle_458-78" width="3" height="3" class="cls-3" rx="1" transform="translate(812 110)"/>
        </g>
        <g transform="translate(-732 -40)">
            <rect id="Rectangle_458-79" width="3" height="3" class="cls-3" rx="1" transform="translate(812 110)"/>
        </g>
        <g transform="translate(-722 -40)">
            <rect id="Rectangle_458-80" width="3" height="3" class="cls-3" rx="1" transform="translate(812 110)"/>
        </g>
        <g transform="translate(-812 -30)">
            <rect id="Rectangle_458-81" width="3" height="3" class="cls-3" rx="1" transform="translate(812 110)"/>
        </g>
        <g transform="translate(-802 -30)">
            <rect id="Rectangle_458-82" width="3" height="3" class="cls-3" rx="1" transform="translate(812 110)"/>
        </g>
        <g transform="translate(-792 -30)">
            <rect id="Rectangle_458-83" width="3" height="3" class="cls-3" rx="1" transform="translate(812 110)"/>
        </g>
        <g transform="translate(-782 -30)">
            <rect id="Rectangle_458-84" width="3" height="3" class="cls-3" rx="1" transform="translate(812 110)"/>
        </g>
        <g transform="translate(-772 -30)">
            <rect id="Rectangle_458-85" width="3" height="3" class="cls-3" rx="1" transform="translate(812 110)"/>
        </g>
        <g transform="translate(-762 -30)">
            <rect id="Rectangle_458-86" width="3" height="3" class="cls-3" rx="1" transform="translate(812 110)"/>
        </g>
        <g transform="translate(-752 -30)">
            <rect id="Rectangle_458-87" width="3" height="3" class="cls-3" rx="1" transform="translate(812 110)"/>
        </g>
        <g transform="translate(-742 -30)">
            <rect id="Rectangle_458-88" width="3" height="3" class="cls-3" rx="1" transform="translate(812 110)"/>
        </g>
        <g transform="translate(-732 -30)">
            <rect id="Rectangle_458-89" width="3" height="3" class="cls-3" rx="1" transform="translate(812 110)"/>
        </g>
        <g transform="translate(-722 -30)">
            <rect id="Rectangle_458-90" width="3" height="3" class="cls-3" rx="1" transform="translate(812 110)"/>
        </g>
        <g transform="translate(-812 -20)">
            <rect id="Rectangle_458-91" width="3" height="3" class="cls-3" rx="1" transform="translate(812 110)"/>
        </g>
        <g transform="translate(-802 -20)">
            <rect id="Rectangle_458-92" width="3" height="3" class="cls-3" rx="1" transform="translate(812 110)"/>
        </g>
        <g transform="translate(-792 -20)">
            <rect id="Rectangle_458-93" width="3" height="3" class="cls-3" rx="1" transform="translate(812 110)"/>
        </g>
        <g transform="translate(-782 -20)">
            <rect id="Rectangle_458-94" width="3" height="3" class="cls-3" rx="1" transform="translate(812 110)"/>
        </g>
        <g transform="translate(-772 -20)">
            <rect id="Rectangle_458-95" width="3" height="3" class="cls-3" rx="1" transform="translate(812 110)"/>
        </g>
        <g transform="translate(-762 -20)">
            <rect id="Rectangle_458-96" width="3" height="3" class="cls-3" rx="1" transform="translate(812 110)"/>
        </g>
        <g transform="translate(-752 -20)">
            <rect id="Rectangle_458-97" width="3" height="3" class="cls-3" rx="1" transform="translate(812 110)"/>
        </g>
        <g transform="translate(-742 -20)">
            <rect id="Rectangle_458-98" width="3" height="3" class="cls-3" rx="1" transform="translate(812 110)"/>
        </g>
        <g transform="translate(-732 -20)">
            <rect id="Rectangle_458-99" width="3" height="3" class="cls-3" rx="1" transform="translate(812 110)"/>
        </g>
        <g transform="translate(-722 -20)">
            <rect id="Rectangle_458-100" width="3" height="3" class="cls-3" rx="1" transform="translate(812 110)"/>
        </g>
        <g transform="translate(-812 -10)">
            <rect id="Rectangle_458-101" width="3" height="3" class="cls-3" rx="1" transform="translate(812 110)"/>
        </g>
        <g transform="translate(-802 -10)">
            <rect id="Rectangle_458-102" width="3" height="3" class="cls-3" rx="1" transform="translate(812 110)"/>
        </g>
        <g transform="translate(-792 -10)">
            <rect id="Rectangle_458-103" width="3" height="3" class="cls-3" rx="1" transform="translate(812 110)"/>
        </g>
        <g transform="translate(-782 -10)">
            <rect id="Rectangle_458-104" width="3" height="3" class="cls-3" rx="1" transform="translate(812 110)"/>
        </g>
        <g transform="translate(-772 -10)">
            <rect id="Rectangle_458-105" width="3" height="3" class="cls-3" rx="1" transform="translate(812 110)"/>
        </g>
        <g transform="translate(-762 -10)">
            <rect id="Rectangle_458-106" width="3" height="3" class="cls-3" rx="1" transform="translate(812 110)"/>
        </g>
        <g transform="translate(-752 -10)">
            <rect id="Rectangle_458-107" width="3" height="3" class="cls-3" rx="1" transform="translate(812 110)"/>
        </g>
        <g transform="translate(-742 -10)">
            <rect id="Rectangle_458-108" width="3" height="3" class="cls-3" rx="1" transform="translate(812 110)"/>
        </g>
        <g transform="translate(-732 -10)">
            <rect id="Rectangle_458-109" width="3" height="3" class="cls-3" rx="1" transform="translate(812 110)"/>
        </g>
        <g transform="translate(-722 -10)">
            <rect id="Rectangle_458-110" width="3" height="3" class="cls-3" rx="1" transform="translate(812 110)"/>
        </g>
        <g transform="translate(-812)">
            <rect id="Rectangle_458-111" width="3" height="3" class="cls-3" rx="1" transform="translate(812 110)"/>
        </g>
        <g transform="translate(-802)">
            <rect id="Rectangle_458-112" width="3" height="3" class="cls-3" rx="1" transform="translate(812 110)"/>
        </g>
        <g transform="translate(-792)">
            <rect id="Rectangle_458-113" width="3" height="3" class="cls-3" rx="1" transform="translate(812 110)"/>
        </g>
        <g transform="translate(-782)">
            <rect id="Rectangle_458-114" width="3" height="3" class="cls-3" rx="1" transform="translate(812 110)"/>
        </g>
        <g transform="translate(-772)">
            <rect id="Rectangle_458-115" width="3" height="3" class="cls-3" rx="1" transform="translate(812 110)"/>
        </g>
        <g transform="translate(-762)">
            <rect id="Rectangle_458-116" width="3" height="3" class="cls-3" rx="1" transform="translate(812 110)"/>
        </g>
        <g transform="translate(-752)">
            <rect id="Rectangle_458-117" width="3" height="3" class="cls-3" rx="1" transform="translate(812 110)"/>
        </g>
        <g transform="translate(-742)">
            <rect id="Rectangle_458-118" width="3" height="3" class="cls-3" rx="1" transform="translate(812 110)"/>
        </g>
        <g transform="translate(-732)">
            <rect id="Rectangle_458-119" width="3" height="3" class="cls-3" rx="1" transform="translate(812 110)"/>
        </g>
        <g transform="translate(-722)">
            <rect id="Rectangle_458-120" width="3" height="3" class="cls-3" rx="1" transform="translate(812 110)"/>
        </g>
        <g transform="translate(-812 10)">
            <rect id="Rectangle_458-121" width="3" height="3" class="cls-3" rx="1" transform="translate(812 110)"/>
        </g>
        <g transform="translate(-802 10)">
            <rect id="Rectangle_458-122" width="3" height="3" class="cls-3" rx="1" transform="translate(812 110)"/>
        </g>
        <g transform="translate(-792 10)">
            <rect id="Rectangle_458-123" width="3" height="3" class="cls-3" rx="1" transform="translate(812 110)"/>
        </g>
        <g transform="translate(-782 10)">
            <rect id="Rectangle_458-124" width="3" height="3" class="cls-3" rx="1" transform="translate(812 110)"/>
        </g>
        <g transform="translate(-772 10)">
            <rect id="Rectangle_458-125" width="3" height="3" class="cls-3" rx="1" transform="translate(812 110)"/>
        </g>
        <g transform="translate(-762 10)">
            <rect id="Rectangle_458-126" width="3" height="3" class="cls-3" rx="1" transform="translate(812 110)"/>
        </g>
        <g transform="translate(-752 10)">
            <rect id="Rectangle_458-127" width="3" height="3" class="cls-3" rx="1" transform="translate(812 110)"/>
        </g>
        <g transform="translate(-742 10)">
            <rect id="Rectangle_458-128" width="3" height="3" class="cls-3" rx="1" transform="translate(812 110)"/>
        </g>
        <g transform="translate(-732 10)">
            <rect id="Rectangle_458-129" width="3" height="3" class="cls-3" rx="1" transform="translate(812 110)"/>
        </g>
        <g transform="translate(-722 10)">
            <rect id="Rectangle_458-130" width="3" height="3" class="cls-3" rx="1" transform="translate(812 110)"/>
        </g>
        <g transform="translate(-812 20)">
            <rect id="Rectangle_458-131" width="3" height="3" class="cls-3" rx="1" transform="translate(812 110)"/>
        </g>
        <g transform="translate(-802 20)">
            <rect id="Rectangle_458-132" width="3" height="3" class="cls-3" rx="1" transform="translate(812 110)"/>
        </g>
        <g transform="translate(-792 20)">
            <rect id="Rectangle_458-133" width="3" height="3" class="cls-3" rx="1" transform="translate(812 110)"/>
        </g>
        <g transform="translate(-782 20)">
            <rect id="Rectangle_458-134" width="3" height="3" class="cls-3" rx="1" transform="translate(812 110)"/>
        </g>
        <g transform="translate(-772 20)">
            <rect id="Rectangle_458-135" width="3" height="3" class="cls-3" rx="1" transform="translate(812 110)"/>
        </g>
        <g transform="translate(-762 20)">
            <rect id="Rectangle_458-136" width="3" height="3" class="cls-3" rx="1" transform="translate(812 110)"/>
        </g>
        <g transform="translate(-752 20)">
            <rect id="Rectangle_458-137" width="3" height="3" class="cls-3" rx="1" transform="translate(812 110)"/>
        </g>
        <g transform="translate(-742 20)">
            <rect id="Rectangle_458-138" width="3" height="3" class="cls-3" rx="1" transform="translate(812 110)"/>
        </g>
        <g transform="translate(-732 20)">
            <rect id="Rectangle_458-139" width="3" height="3" class="cls-3" rx="1" transform="translate(812 110)"/>
        </g>
        <g transform="translate(-722 20)">
            <rect id="Rectangle_458-140" width="3" height="3" class="cls-3" rx="1" transform="translate(812 110)"/>
        </g>
        <g transform="translate(-812 30)">
            <rect id="Rectangle_458-141" width="3" height="3" class="cls-3" rx="1" transform="translate(812 110)"/>
        </g>
        <g transform="translate(-802 30)">
            <rect id="Rectangle_458-142" width="3" height="3" class="cls-3" rx="1" transform="translate(812 110)"/>
        </g>
        <g transform="translate(-792 30)">
            <rect id="Rectangle_458-143" width="3" height="3" class="cls-3" rx="1" transform="translate(812 110)"/>
        </g>
        <g transform="translate(-782 30)">
            <rect id="Rectangle_458-144" width="3" height="3" class="cls-3" rx="1" transform="translate(812 110)"/>
        </g>
        <g transform="translate(-772 30)">
            <rect id="Rectangle_458-145" width="3" height="3" class="cls-3" rx="1" transform="translate(812 110)"/>
        </g>
        <g transform="translate(-762 30)">
            <rect id="Rectangle_458-146" width="3" height="3" class="cls-3" rx="1" transform="translate(812 110)"/>
        </g>
        <g transform="translate(-752 30)">
            <rect id="Rectangle_458-147" width="3" height="3" class="cls-3" rx="1" transform="translate(812 110)"/>
        </g>
        <g transform="translate(-742 30)">
            <rect id="Rectangle_458-148" width="3" height="3" class="cls-3" rx="1" transform="translate(812 110)"/>
        </g>
        <g transform="translate(-732 30)">
            <rect id="Rectangle_458-149" width="3" height="3" class="cls-3" rx="1" transform="translate(812 110)"/>
        </g>
        <g transform="translate(-722 30)">
            <rect id="Rectangle_458-150" width="3" height="3" class="cls-3" rx="1" transform="translate(812 110)"/>
        </g>
        <g transform="translate(-812 40)">
            <rect id="Rectangle_458-151" width="3" height="3" class="cls-3" rx="1" transform="translate(812 110)"/>
        </g>
        <g transform="translate(-802 40)">
            <rect id="Rectangle_458-152" width="3" height="3" class="cls-3" rx="1" transform="translate(812 110)"/>
        </g>
        <g transform="translate(-792 40)">
            <rect id="Rectangle_458-153" width="3" height="3" class="cls-3" rx="1" transform="translate(812 110)"/>
        </g>
        <g transform="translate(-782 40)">
            <rect id="Rectangle_458-154" width="3" height="3" class="cls-3" rx="1" transform="translate(812 110)"/>
        </g>
        <g transform="translate(-772 40)">
            <rect id="Rectangle_458-155" width="3" height="3" class="cls-3" rx="1" transform="translate(812 110)"/>
        </g>
        <g transform="translate(-762 40)">
            <rect id="Rectangle_458-156" width="3" height="3" class="cls-3" rx="1" transform="translate(812 110)"/>
        </g>
        <g transform="translate(-752 40)">
            <rect id="Rectangle_458-157" width="3" height="3" class="cls-3" rx="1" transform="translate(812 110)"/>
        </g>
        <g transform="translate(-742 40)">
            <rect id="Rectangle_458-158" width="3" height="3" class="cls-3" rx="1" transform="translate(812 110)"/>
        </g>
        <g transform="translate(-732 40)">
            <rect id="Rectangle_458-159" width="3" height="3" class="cls-3" rx="1" transform="translate(812 110)"/>
        </g>
        <g transform="translate(-722 40)">
            <rect id="Rectangle_458-160" width="3" height="3" class="cls-3" rx="1" transform="translate(812 110)"/>
        </g>
        <g transform="translate(-812 50)">
            <rect id="Rectangle_458-161" width="3" height="3" class="cls-3" rx="1" transform="translate(812 110)"/>
        </g>
        <g transform="translate(-802 50)">
            <rect id="Rectangle_458-162" width="3" height="3" class="cls-3" rx="1" transform="translate(812 110)"/>
        </g>
        <g transform="translate(-792 50)">
            <rect id="Rectangle_458-163" width="3" height="3" class="cls-3" rx="1" transform="translate(812 110)"/>
        </g>
        <g transform="translate(-782 50)">
            <rect id="Rectangle_458-164" width="3" height="3" class="cls-3" rx="1" transform="translate(812 110)"/>
        </g>
        <g transform="translate(-772 50)">
            <rect id="Rectangle_458-165" width="3" height="3" class="cls-3" rx="1" transform="translate(812 110)"/>
        </g>
        <g transform="translate(-762 50)">
            <rect id="Rectangle_458-166" width="3" height="3" class="cls-3" rx="1" transform="translate(812 110)"/>
        </g>
        <g transform="translate(-752 50)">
            <rect id="Rectangle_458-167" width="3" height="3" class="cls-3" rx="1" transform="translate(812 110)"/>
        </g>
        <g transform="translate(-742 50)">
            <rect id="Rectangle_458-168" width="3" height="3" class="cls-3" rx="1" transform="translate(812 110)"/>
        </g>
        <g transform="translate(-732 50)">
            <rect id="Rectangle_458-169" width="3" height="3" class="cls-3" rx="1" transform="translate(812 110)"/>
        </g>
        <g transform="translate(-722 50)">
            <rect id="Rectangle_458-170" width="3" height="3" class="cls-3" rx="1" transform="translate(812 110)"/>
        </g>
        <g transform="translate(-812 60)">
            <rect id="Rectangle_458-171" width="3" height="3" class="cls-3" rx="1" transform="translate(812 110)"/>
        </g>
        <g transform="translate(-802 60)">
            <rect id="Rectangle_458-172" width="3" height="3" class="cls-3" rx="1" transform="translate(812 110)"/>
        </g>
        <g transform="translate(-792 60)">
            <rect id="Rectangle_458-173" width="3" height="3" class="cls-3" rx="1" transform="translate(812 110)"/>
        </g>
        <g transform="translate(-782 60)">
            <rect id="Rectangle_458-174" width="3" height="3" class="cls-3" rx="1" transform="translate(812 110)"/>
        </g>
        <g transform="translate(-772 60)">
            <rect id="Rectangle_458-175" width="3" height="3" class="cls-3" rx="1" transform="translate(812 110)"/>
        </g>
        <g transform="translate(-762 60)">
            <rect id="Rectangle_458-176" width="3" height="3" class="cls-3" rx="1" transform="translate(812 110)"/>
        </g>
        <g transform="translate(-752 60)">
            <rect id="Rectangle_458-177" width="3" height="3" class="cls-3" rx="1" transform="translate(812 110)"/>
        </g>
        <g transform="translate(-742 60)">
            <rect id="Rectangle_458-178" width="3" height="3" class="cls-3" rx="1" transform="translate(812 110)"/>
        </g>
        <g transform="translate(-732 60)">
            <rect id="Rectangle_458-179" width="3" height="3" class="cls-3" rx="1" transform="translate(812 110)"/>
        </g>
        <g transform="translate(-722 60)">
            <rect id="Rectangle_458-180" width="3" height="3" class="cls-3" rx="1" transform="translate(812 110)"/>
        </g>
        <g transform="translate(-812 70)">
            <rect id="Rectangle_458-181" width="3" height="3" class="cls-3" rx="1" transform="translate(812 110)"/>
        </g>
        <g transform="translate(-802 70)">
            <rect id="Rectangle_458-182" width="3" height="3" class="cls-3" rx="1" transform="translate(812 110)"/>
        </g>
        <g transform="translate(-792 70)">
            <rect id="Rectangle_458-183" width="3" height="3" class="cls-3" rx="1" transform="translate(812 110)"/>
        </g>
        <g transform="translate(-782 70)">
            <rect id="Rectangle_458-184" width="3" height="3" class="cls-3" rx="1" transform="translate(812 110)"/>
        </g>
        <g transform="translate(-772 70)">
            <rect id="Rectangle_458-185" width="3" height="3" class="cls-3" rx="1" transform="translate(812 110)"/>
        </g>
        <g transform="translate(-762 70)">
            <rect id="Rectangle_458-186" width="3" height="3" class="cls-3" rx="1" transform="translate(812 110)"/>
        </g>
        <g transform="translate(-752 70)">
            <rect id="Rectangle_458-187" width="3" height="3" class="cls-3" rx="1" transform="translate(812 110)"/>
        </g>
        <g transform="translate(-742 70)">
            <rect id="Rectangle_458-188" width="3" height="3" class="cls-3" rx="1" transform="translate(812 110)"/>
        </g>
        <g transform="translate(-732 70)">
            <rect id="Rectangle_458-189" width="3" height="3" class="cls-3" rx="1" transform="translate(812 110)"/>
        </g>
        <g transform="translate(-722 70)">
            <rect id="Rectangle_458-190" width="3" height="3" class="cls-3" rx="1" transform="translate(812 110)"/>
        </g>
        <g transform="translate(-812 80)">
            <rect id="Rectangle_458-191" width="3" height="3" class="cls-3" rx="1" transform="translate(812 110)"/>
        </g>
        <g transform="translate(-802 80)">
            <rect id="Rectangle_458-192" width="3" height="3" class="cls-3" rx="1" transform="translate(812 110)"/>
        </g>
        <g transform="translate(-792 80)">
            <rect id="Rectangle_458-193" width="3" height="3" class="cls-3" rx="1" transform="translate(812 110)"/>
        </g>
        <g transform="translate(-782 80)">
            <rect id="Rectangle_458-194" width="3" height="3" class="cls-3" rx="1" transform="translate(812 110)"/>
        </g>
        <g transform="translate(-772 80)">
            <rect id="Rectangle_458-195" width="3" height="3" class="cls-3" rx="1" transform="translate(812 110)"/>
        </g>
        <g transform="translate(-762 80)">
            <rect id="Rectangle_458-196" width="3" height="3" class="cls-3" rx="1" transform="translate(812 110)"/>
        </g>
        <g transform="translate(-752 80)">
            <rect id="Rectangle_458-197" width="3" height="3" class="cls-3" rx="1" transform="translate(812 110)"/>
        </g>
        <g transform="translate(-742 80)">
            <rect id="Rectangle_458-198" width="3" height="3" class="cls-3" rx="1" transform="translate(812 110)"/>
        </g>
        <g transform="translate(-732 80)">
            <rect id="Rectangle_458-199" width="3" height="3" class="cls-3" rx="1" transform="translate(812 110)"/>
        </g>
        <g transform="translate(-722 80)">
            <rect id="Rectangle_458-200" width="3" height="3" class="cls-3" rx="1" transform="translate(812 110)"/>
        </g>
        <g transform="translate(-812 90)">
            <rect id="Rectangle_458-201" width="3" height="3" class="cls-3" rx="1" transform="translate(812 110)"/>
        </g>
        <g transform="translate(-802 90)">
            <rect id="Rectangle_458-202" width="3" height="3" class="cls-3" rx="1" transform="translate(812 110)"/>
        </g>
        <g transform="translate(-792 90)">
            <rect id="Rectangle_458-203" width="3" height="3" class="cls-3" rx="1" transform="translate(812 110)"/>
        </g>
        <g transform="translate(-782 90)">
            <rect id="Rectangle_458-204" width="3" height="3" class="cls-3" rx="1" transform="translate(812 110)"/>
        </g>
        <g transform="translate(-772 90)">
            <rect id="Rectangle_458-205" width="3" height="3" class="cls-3" rx="1" transform="translate(812 110)"/>
        </g>
        <g transform="translate(-762 90)">
            <rect id="Rectangle_458-206" width="3" height="3" class="cls-3" rx="1" transform="translate(812 110)"/>
        </g>
        <g transform="translate(-752 90)">
            <rect id="Rectangle_458-207" width="3" height="3" class="cls-3" rx="1" transform="translate(812 110)"/>
        </g>
        <g transform="translate(-742 90)">
            <rect id="Rectangle_458-208" width="3" height="3" class="cls-3" rx="1" transform="translate(812 110)"/>
        </g>
        <g transform="translate(-732 90)">
            <rect id="Rectangle_458-209" width="3" height="3" class="cls-3" rx="1" transform="translate(812 110)"/>
        </g>
        <g transform="translate(-722 90)">
            <rect id="Rectangle_458-210" width="3" height="3" class="cls-3" rx="1" transform="translate(812 110)"/>
        </g>
    </g>
</svg>
