<svg xmlns="http://www.w3.org/2000/svg" width="94" height="94" viewBox="0 0 94 94">
    <defs>
        <clipPath id="clip-path">
            <path fill="none" d="M0 0H94V94H0z"/>
        </clipPath>
        <style>
            .cls-3{fill:#e25b5a}
        </style>
    </defs>
    <g id="Repeat_Grid_2" clip-path="url(#clip-path)">
        <g transform="translate(-812 -110)">
            <rect id="Rectangle_458" width="3" height="3" class="cls-3" rx="1" transform="translate(812 110)"/>
        </g>
        <g transform="translate(-802 -110)">
            <rect id="Rectangle_458-2" width="3" height="3" class="cls-3" rx="1" transform="translate(812 110)"/>
        </g>
        <g transform="translate(-792 -110)">
            <rect id="Rectangle_458-3" width="3" height="3" class="cls-3" rx="1" transform="translate(812 110)"/>
        </g>
        <g transform="translate(-782 -110)">
            <rect id="Rectangle_458-4" width="3" height="3" class="cls-3" rx="1" transform="translate(812 110)"/>
        </g>
        <g transform="translate(-772 -110)">
            <rect id="Rectangle_458-5" width="3" height="3" class="cls-3" rx="1" transform="translate(812 110)"/>
        </g>
        <g transform="translate(-762 -110)">
            <rect id="Rectangle_458-6" width="3" height="3" class="cls-3" rx="1" transform="translate(812 110)"/>
        </g>
        <g transform="translate(-752 -110)">
            <rect id="Rectangle_458-7" width="3" height="3" class="cls-3" rx="1" transform="translate(812 110)"/>
        </g>
        <g transform="translate(-742 -110)">
            <rect id="Rectangle_458-8" width="3" height="3" class="cls-3" rx="1" transform="translate(812 110)"/>
        </g>
        <g transform="translate(-732 -110)">
            <rect id="Rectangle_458-9" width="3" height="3" class="cls-3" rx="1" transform="translate(812 110)"/>
        </g>
        <g transform="translate(-722 -110)">
            <rect id="Rectangle_458-10" width="3" height="3" class="cls-3" rx="1" transform="translate(812 110)"/>
        </g>
        <g transform="translate(-812 -100)">
            <rect id="Rectangle_458-11" width="3" height="3" class="cls-3" rx="1" transform="translate(812 110)"/>
        </g>
        <g transform="translate(-802 -100)">
            <rect id="Rectangle_458-12" width="3" height="3" class="cls-3" rx="1" transform="translate(812 110)"/>
        </g>
        <g transform="translate(-792 -100)">
            <rect id="Rectangle_458-13" width="3" height="3" class="cls-3" rx="1" transform="translate(812 110)"/>
        </g>
        <g transform="translate(-782 -100)">
            <rect id="Rectangle_458-14" width="3" height="3" class="cls-3" rx="1" transform="translate(812 110)"/>
        </g>
        <g transform="translate(-772 -100)">
            <rect id="Rectangle_458-15" width="3" height="3" class="cls-3" rx="1" transform="translate(812 110)"/>
        </g>
        <g transform="translate(-762 -100)">
            <rect id="Rectangle_458-16" width="3" height="3" class="cls-3" rx="1" transform="translate(812 110)"/>
        </g>
        <g transform="translate(-752 -100)">
            <rect id="Rectangle_458-17" width="3" height="3" class="cls-3" rx="1" transform="translate(812 110)"/>
        </g>
        <g transform="translate(-742 -100)">
            <rect id="Rectangle_458-18" width="3" height="3" class="cls-3" rx="1" transform="translate(812 110)"/>
        </g>
        <g transform="translate(-732 -100)">
            <rect id="Rectangle_458-19" width="3" height="3" class="cls-3" rx="1" transform="translate(812 110)"/>
        </g>
        <g transform="translate(-722 -100)">
            <rect id="Rectangle_458-20" width="3" height="3" class="cls-3" rx="1" transform="translate(812 110)"/>
        </g>
        <g transform="translate(-812 -90)">
            <rect id="Rectangle_458-21" width="3" height="3" class="cls-3" rx="1" transform="translate(812 110)"/>
        </g>
        <g transform="translate(-802 -90)">
            <rect id="Rectangle_458-22" width="3" height="3" class="cls-3" rx="1" transform="translate(812 110)"/>
        </g>
        <g transform="translate(-792 -90)">
            <rect id="Rectangle_458-23" width="3" height="3" class="cls-3" rx="1" transform="translate(812 110)"/>
        </g>
        <g transform="translate(-782 -90)">
            <rect id="Rectangle_458-24" width="3" height="3" class="cls-3" rx="1" transform="translate(812 110)"/>
        </g>
        <g transform="translate(-772 -90)">
            <rect id="Rectangle_458-25" width="3" height="3" class="cls-3" rx="1" transform="translate(812 110)"/>
        </g>
        <g transform="translate(-762 -90)">
            <rect id="Rectangle_458-26" width="3" height="3" class="cls-3" rx="1" transform="translate(812 110)"/>
        </g>
        <g transform="translate(-752 -90)">
            <rect id="Rectangle_458-27" width="3" height="3" class="cls-3" rx="1" transform="translate(812 110)"/>
        </g>
        <g transform="translate(-742 -90)">
            <rect id="Rectangle_458-28" width="3" height="3" class="cls-3" rx="1" transform="translate(812 110)"/>
        </g>
        <g transform="translate(-732 -90)">
            <rect id="Rectangle_458-29" width="3" height="3" class="cls-3" rx="1" transform="translate(812 110)"/>
        </g>
        <g transform="translate(-722 -90)">
            <rect id="Rectangle_458-30" width="3" height="3" class="cls-3" rx="1" transform="translate(812 110)"/>
        </g>
        <g transform="translate(-812 -80)">
            <rect id="Rectangle_458-31" width="3" height="3" class="cls-3" rx="1" transform="translate(812 110)"/>
        </g>
        <g transform="translate(-802 -80)">
            <rect id="Rectangle_458-32" width="3" height="3" class="cls-3" rx="1" transform="translate(812 110)"/>
        </g>
        <g transform="translate(-792 -80)">
            <rect id="Rectangle_458-33" width="3" height="3" class="cls-3" rx="1" transform="translate(812 110)"/>
        </g>
        <g transform="translate(-782 -80)">
            <rect id="Rectangle_458-34" width="3" height="3" class="cls-3" rx="1" transform="translate(812 110)"/>
        </g>
        <g transform="translate(-772 -80)">
            <rect id="Rectangle_458-35" width="3" height="3" class="cls-3" rx="1" transform="translate(812 110)"/>
        </g>
        <g transform="translate(-762 -80)">
            <rect id="Rectangle_458-36" width="3" height="3" class="cls-3" rx="1" transform="translate(812 110)"/>
        </g>
        <g transform="translate(-752 -80)">
            <rect id="Rectangle_458-37" width="3" height="3" class="cls-3" rx="1" transform="translate(812 110)"/>
        </g>
        <g transform="translate(-742 -80)">
            <rect id="Rectangle_458-38" width="3" height="3" class="cls-3" rx="1" transform="translate(812 110)"/>
        </g>
        <g transform="translate(-732 -80)">
            <rect id="Rectangle_458-39" width="3" height="3" class="cls-3" rx="1" transform="translate(812 110)"/>
        </g>
        <g transform="translate(-722 -80)">
            <rect id="Rectangle_458-40" width="3" height="3" class="cls-3" rx="1" transform="translate(812 110)"/>
        </g>
        <g transform="translate(-812 -70)">
            <rect id="Rectangle_458-41" width="3" height="3" class="cls-3" rx="1" transform="translate(812 110)"/>
        </g>
        <g transform="translate(-802 -70)">
            <rect id="Rectangle_458-42" width="3" height="3" class="cls-3" rx="1" transform="translate(812 110)"/>
        </g>
        <g transform="translate(-792 -70)">
            <rect id="Rectangle_458-43" width="3" height="3" class="cls-3" rx="1" transform="translate(812 110)"/>
        </g>
        <g transform="translate(-782 -70)">
            <rect id="Rectangle_458-44" width="3" height="3" class="cls-3" rx="1" transform="translate(812 110)"/>
        </g>
        <g transform="translate(-772 -70)">
            <rect id="Rectangle_458-45" width="3" height="3" class="cls-3" rx="1" transform="translate(812 110)"/>
        </g>
        <g transform="translate(-762 -70)">
            <rect id="Rectangle_458-46" width="3" height="3" class="cls-3" rx="1" transform="translate(812 110)"/>
        </g>
        <g transform="translate(-752 -70)">
            <rect id="Rectangle_458-47" width="3" height="3" class="cls-3" rx="1" transform="translate(812 110)"/>
        </g>
        <g transform="translate(-742 -70)">
            <rect id="Rectangle_458-48" width="3" height="3" class="cls-3" rx="1" transform="translate(812 110)"/>
        </g>
        <g transform="translate(-732 -70)">
            <rect id="Rectangle_458-49" width="3" height="3" class="cls-3" rx="1" transform="translate(812 110)"/>
        </g>
        <g transform="translate(-722 -70)">
            <rect id="Rectangle_458-50" width="3" height="3" class="cls-3" rx="1" transform="translate(812 110)"/>
        </g>
        <g transform="translate(-812 -60)">
            <rect id="Rectangle_458-51" width="3" height="3" class="cls-3" rx="1" transform="translate(812 110)"/>
        </g>
        <g transform="translate(-802 -60)">
            <rect id="Rectangle_458-52" width="3" height="3" class="cls-3" rx="1" transform="translate(812 110)"/>
        </g>
        <g transform="translate(-792 -60)">
            <rect id="Rectangle_458-53" width="3" height="3" class="cls-3" rx="1" transform="translate(812 110)"/>
        </g>
        <g transform="translate(-782 -60)">
            <rect id="Rectangle_458-54" width="3" height="3" class="cls-3" rx="1" transform="translate(812 110)"/>
        </g>
        <g transform="translate(-772 -60)">
            <rect id="Rectangle_458-55" width="3" height="3" class="cls-3" rx="1" transform="translate(812 110)"/>
        </g>
        <g transform="translate(-762 -60)">
            <rect id="Rectangle_458-56" width="3" height="3" class="cls-3" rx="1" transform="translate(812 110)"/>
        </g>
        <g transform="translate(-752 -60)">
            <rect id="Rectangle_458-57" width="3" height="3" class="cls-3" rx="1" transform="translate(812 110)"/>
        </g>
        <g transform="translate(-742 -60)">
            <rect id="Rectangle_458-58" width="3" height="3" class="cls-3" rx="1" transform="translate(812 110)"/>
        </g>
        <g transform="translate(-732 -60)">
            <rect id="Rectangle_458-59" width="3" height="3" class="cls-3" rx="1" transform="translate(812 110)"/>
        </g>
        <g transform="translate(-722 -60)">
            <rect id="Rectangle_458-60" width="3" height="3" class="cls-3" rx="1" transform="translate(812 110)"/>
        </g>
        <g transform="translate(-812 -50)">
            <rect id="Rectangle_458-61" width="3" height="3" class="cls-3" rx="1" transform="translate(812 110)"/>
        </g>
        <g transform="translate(-802 -50)">
            <rect id="Rectangle_458-62" width="3" height="3" class="cls-3" rx="1" transform="translate(812 110)"/>
        </g>
        <g transform="translate(-792 -50)">
            <rect id="Rectangle_458-63" width="3" height="3" class="cls-3" rx="1" transform="translate(812 110)"/>
        </g>
        <g transform="translate(-782 -50)">
            <rect id="Rectangle_458-64" width="3" height="3" class="cls-3" rx="1" transform="translate(812 110)"/>
        </g>
        <g transform="translate(-772 -50)">
            <rect id="Rectangle_458-65" width="3" height="3" class="cls-3" rx="1" transform="translate(812 110)"/>
        </g>
        <g transform="translate(-762 -50)">
            <rect id="Rectangle_458-66" width="3" height="3" class="cls-3" rx="1" transform="translate(812 110)"/>
        </g>
        <g transform="translate(-752 -50)">
            <rect id="Rectangle_458-67" width="3" height="3" class="cls-3" rx="1" transform="translate(812 110)"/>
        </g>
        <g transform="translate(-742 -50)">
            <rect id="Rectangle_458-68" width="3" height="3" class="cls-3" rx="1" transform="translate(812 110)"/>
        </g>
        <g transform="translate(-732 -50)">
            <rect id="Rectangle_458-69" width="3" height="3" class="cls-3" rx="1" transform="translate(812 110)"/>
        </g>
        <g transform="translate(-722 -50)">
            <rect id="Rectangle_458-70" width="3" height="3" class="cls-3" rx="1" transform="translate(812 110)"/>
        </g>
        <g transform="translate(-812 -40)">
            <rect id="Rectangle_458-71" width="3" height="3" class="cls-3" rx="1" transform="translate(812 110)"/>
        </g>
        <g transform="translate(-802 -40)">
            <rect id="Rectangle_458-72" width="3" height="3" class="cls-3" rx="1" transform="translate(812 110)"/>
        </g>
        <g transform="translate(-792 -40)">
            <rect id="Rectangle_458-73" width="3" height="3" class="cls-3" rx="1" transform="translate(812 110)"/>
        </g>
        <g transform="translate(-782 -40)">
            <rect id="Rectangle_458-74" width="3" height="3" class="cls-3" rx="1" transform="translate(812 110)"/>
        </g>
        <g transform="translate(-772 -40)">
            <rect id="Rectangle_458-75" width="3" height="3" class="cls-3" rx="1" transform="translate(812 110)"/>
        </g>
        <g transform="translate(-762 -40)">
            <rect id="Rectangle_458-76" width="3" height="3" class="cls-3" rx="1" transform="translate(812 110)"/>
        </g>
        <g transform="translate(-752 -40)">
            <rect id="Rectangle_458-77" width="3" height="3" class="cls-3" rx="1" transform="translate(812 110)"/>
        </g>
        <g transform="translate(-742 -40)">
            <rect id="Rectangle_458-78" width="3" height="3" class="cls-3" rx="1" transform="translate(812 110)"/>
        </g>
        <g transform="translate(-732 -40)">
            <rect id="Rectangle_458-79" width="3" height="3" class="cls-3" rx="1" transform="translate(812 110)"/>
        </g>
        <g transform="translate(-722 -40)">
            <rect id="Rectangle_458-80" width="3" height="3" class="cls-3" rx="1" transform="translate(812 110)"/>
        </g>
        <g transform="translate(-812 -30)">
            <rect id="Rectangle_458-81" width="3" height="3" class="cls-3" rx="1" transform="translate(812 110)"/>
        </g>
        <g transform="translate(-802 -30)">
            <rect id="Rectangle_458-82" width="3" height="3" class="cls-3" rx="1" transform="translate(812 110)"/>
        </g>
        <g transform="translate(-792 -30)">
            <rect id="Rectangle_458-83" width="3" height="3" class="cls-3" rx="1" transform="translate(812 110)"/>
        </g>
        <g transform="translate(-782 -30)">
            <rect id="Rectangle_458-84" width="3" height="3" class="cls-3" rx="1" transform="translate(812 110)"/>
        </g>
        <g transform="translate(-772 -30)">
            <rect id="Rectangle_458-85" width="3" height="3" class="cls-3" rx="1" transform="translate(812 110)"/>
        </g>
        <g transform="translate(-762 -30)">
            <rect id="Rectangle_458-86" width="3" height="3" class="cls-3" rx="1" transform="translate(812 110)"/>
        </g>
        <g transform="translate(-752 -30)">
            <rect id="Rectangle_458-87" width="3" height="3" class="cls-3" rx="1" transform="translate(812 110)"/>
        </g>
        <g transform="translate(-742 -30)">
            <rect id="Rectangle_458-88" width="3" height="3" class="cls-3" rx="1" transform="translate(812 110)"/>
        </g>
        <g transform="translate(-732 -30)">
            <rect id="Rectangle_458-89" width="3" height="3" class="cls-3" rx="1" transform="translate(812 110)"/>
        </g>
        <g transform="translate(-722 -30)">
            <rect id="Rectangle_458-90" width="3" height="3" class="cls-3" rx="1" transform="translate(812 110)"/>
        </g>
        <g transform="translate(-812 -20)">
            <rect id="Rectangle_458-91" width="3" height="3" class="cls-3" rx="1" transform="translate(812 110)"/>
        </g>
        <g transform="translate(-802 -20)">
            <rect id="Rectangle_458-92" width="3" height="3" class="cls-3" rx="1" transform="translate(812 110)"/>
        </g>
        <g transform="translate(-792 -20)">
            <rect id="Rectangle_458-93" width="3" height="3" class="cls-3" rx="1" transform="translate(812 110)"/>
        </g>
        <g transform="translate(-782 -20)">
            <rect id="Rectangle_458-94" width="3" height="3" class="cls-3" rx="1" transform="translate(812 110)"/>
        </g>
        <g transform="translate(-772 -20)">
            <rect id="Rectangle_458-95" width="3" height="3" class="cls-3" rx="1" transform="translate(812 110)"/>
        </g>
        <g transform="translate(-762 -20)">
            <rect id="Rectangle_458-96" width="3" height="3" class="cls-3" rx="1" transform="translate(812 110)"/>
        </g>
        <g transform="translate(-752 -20)">
            <rect id="Rectangle_458-97" width="3" height="3" class="cls-3" rx="1" transform="translate(812 110)"/>
        </g>
        <g transform="translate(-742 -20)">
            <rect id="Rectangle_458-98" width="3" height="3" class="cls-3" rx="1" transform="translate(812 110)"/>
        </g>
        <g transform="translate(-732 -20)">
            <rect id="Rectangle_458-99" width="3" height="3" class="cls-3" rx="1" transform="translate(812 110)"/>
        </g>
        <g transform="translate(-722 -20)">
            <rect id="Rectangle_458-100" width="3" height="3" class="cls-3" rx="1" transform="translate(812 110)"/>
        </g>
    </g>
</svg>
