<svg xmlns="http://www.w3.org/2000/svg" width="25.254" height="20.203" viewBox="0 0 25.254 20.203">
    <path d="M12.627 15.784a5.661 5.661 0 0 1-5.639-5.252l-4.139-3.2A13.151 13.151 0 0 0 1.4 9.526a1.277 1.277 0 0 0 0 1.152 12.656 12.656 0 0 0 11.227 7 12.257 12.257 0 0 0 3.073-.413l-2.048-1.584a5.687 5.687 0 0 1-1.026.1zm12.383 2.292L20.648 14.7a13.071 13.071 0 0 0 3.206-4.028 1.277 1.277 0 0 0 0-1.152 12.656 12.656 0 0 0-11.227-7 12.159 12.159 0 0 0-5.813 1.493L1.794.133a.631.631 0 0 0-.886.111l-.775 1a.631.631 0 0 0 .111.886L23.46 20.07a.631.631 0 0 0 .886-.111l.775-1a.631.631 0 0 0-.111-.886zm-7.249-5.6l-1.551-1.2a3.739 3.739 0 0 0-4.582-4.811A1.88 1.88 0 0 1 12 7.576a1.84 1.84 0 0 1-.061.395L9.03 5.726a5.615 5.615 0 0 1 3.6-1.306 5.679 5.679 0 0 1 5.679 5.68 5.547 5.547 0 0 1-.548 2.372z" opacity="0.8"/>
</svg>
