<svg xmlns="http://www.w3.org/2000/svg" width="23" height="15.333" viewBox="0 0 23 15.333">
    <path fill="#323232" d="M22.861 11.584A12.807 12.807 0 0 0 11.5 4.5 12.809 12.809 0 0 0 .139 11.584a1.292 1.292 0 0 0 0 1.166A12.807 12.807 0 0 0 11.5 19.833a12.809 12.809 0 0 0 11.361-7.084 1.292 1.292 0 0 0 0-1.165zM11.5 17.917a5.75 5.75 0 1 1 5.75-5.75 5.75 5.75 0 0 1-5.75 5.75zm0-9.583a3.806 3.806 0 0 0-1.011.151 1.911 1.911 0 0 1-2.671 2.671A3.825 3.825 0 1 0 11.5 8.333z" transform="translate(0 -4.5)"/>
</svg>
